<svg width="15" height="43" viewBox="0 0 15 43" fill="none" xmlns="http://www.w3.org/2000/svg">
<path d="M8.5 1C8.5 0.447715 8.05228 2.41411e-08 7.5 0C6.94772 -2.41411e-08 6.5 0.447715 6.5 1L8.5 1ZM6.79289 42.7071C7.18342 43.0976 7.81658 43.0976 8.2071 42.7071L14.5711 36.3431C14.9616 35.9526 14.9616 35.3195 14.5711 34.9289C14.1805 34.5384 13.5474 34.5384 13.1569 34.9289L7.5 40.5858L1.84314 34.9289C1.45262 34.5384 0.819455 34.5384 0.428931 34.9289C0.0384063 35.3195 0.0384063 35.9526 0.428931 36.3431L6.79289 42.7071ZM6.5 1L6.5 42L8.5 42L8.5 1L6.5 1Z" fill="white"/>
</svg>
