<svg width="19" height="19" viewBox="0 0 19 19" fill="none" xmlns="http://www.w3.org/2000/svg">
<path d="M13.9704 5.66942C12.7761 4.46735 11.1641 3.77625 9.47261 3.74108L9.47286 2.3929C9.47249 2.26623 9.43482 2.1425 9.36457 2.03727C9.29433 1.93203 9.19465 1.85 9.07806 1.80146C8.96147 1.75293 8.83317 1.74007 8.70929 1.7645C8.58541 1.78892 8.47147 1.84954 8.3818 1.93874L5.86134 4.46796C5.80088 4.52665 5.75254 4.59672 5.71906 4.67415C5.68559 4.75159 5.66764 4.83488 5.66625 4.91927C5.66486 5.00365 5.68004 5.08748 5.71094 5.16596C5.74184 5.24445 5.78785 5.31605 5.84633 5.37668L8.36588 7.90498C8.45552 7.99414 8.56943 8.05472 8.6933 8.0791C8.81718 8.10348 8.94548 8.09058 9.06209 8.042C9.1787 7.99343 9.27841 7.91136 9.34869 7.8061C9.41897 7.70084 9.45669 7.5771 9.4571 7.45042L9.45367 5.87507C10.5722 5.90593 11.6367 6.36396 12.4299 7.15567C12.9504 7.66314 13.3397 8.29027 13.5642 8.98279C13.7887 9.67531 13.8416 10.4124 13.7183 11.1301C13.5951 11.8479 13.2994 12.5248 12.8569 13.1023C12.4143 13.6797 11.8383 14.1402 11.1785 14.4441C10.5188 14.7479 9.7953 14.8859 9.07061 14.8461C8.34591 14.8062 7.64187 14.5897 7.01942 14.2154C6.39698 13.841 5.87487 13.3201 5.49828 12.6976C5.1217 12.0751 4.90199 11.3699 4.85816 10.6429C4.85643 10.5615 4.82342 10.4839 4.76604 10.4263C4.70866 10.3687 4.63132 10.3356 4.55018 10.3339L3.06564 10.3341C3.02251 10.3333 2.97964 10.3412 2.93962 10.3573C2.8996 10.3735 2.86324 10.3976 2.83273 10.4282C2.80222 10.4588 2.77819 10.4953 2.76208 10.5355C2.74597 10.5756 2.73811 10.6187 2.73898 10.6619C2.78892 11.7351 3.09879 12.7797 3.64174 13.7055C4.1847 14.6312 4.94439 15.4101 5.85503 15.9747C6.76567 16.5393 7.79981 16.8726 8.86791 16.9458C9.93602 17.0189 11.0059 16.8297 11.9849 16.3946C12.9639 15.9594 13.8225 15.2913 14.4864 14.4483C15.1503 13.6052 15.5995 12.6126 15.7951 11.5562C15.9906 10.4999 15.9267 9.41174 15.6087 8.38599C15.2908 7.36024 14.7285 6.4278 13.9704 5.66942Z" fill="white"/>
<path d="M7.98055 12.044C7.94722 12.044 7.91722 12.0323 7.89055 12.009C7.86722 11.9856 7.85555 11.9556 7.85555 11.919V9.43397L7.13555 9.98897C7.10555 10.0123 7.07389 10.0206 7.04055 10.014C7.01055 10.0073 6.98389 9.98897 6.96055 9.95897L6.71055 9.63397C6.69055 9.60397 6.68222 9.5723 6.68555 9.53897C6.69222 9.50563 6.71055 9.47897 6.74055 9.45897L7.88055 8.57897C7.90055 8.56563 7.91889 8.5573 7.93555 8.55397C7.95555 8.5473 7.97722 8.54397 8.00055 8.54397H8.53055C8.56389 8.54397 8.59222 8.55563 8.61555 8.57897C8.63889 8.6023 8.65055 8.6323 8.65055 8.66897V11.919C8.65055 11.9556 8.63889 11.9856 8.61555 12.009C8.59222 12.0323 8.56389 12.044 8.53055 12.044H7.98055ZM10.5581 12.094C10.3181 12.094 10.1115 12.0606 9.93813 11.994C9.76813 11.924 9.62646 11.829 9.51313 11.709C9.40313 11.5856 9.3198 11.444 9.26313 11.284C9.2098 11.1206 9.17813 10.9473 9.16813 10.764C9.1648 10.674 9.16146 10.574 9.15813 10.464C9.15813 10.3506 9.15813 10.2373 9.15813 10.124C9.16146 10.0106 9.1648 9.9073 9.16813 9.81397C9.1748 9.63063 9.20646 9.45897 9.26313 9.29897C9.32313 9.13897 9.4098 8.99897 9.52313 8.87897C9.63646 8.75897 9.77813 8.66563 9.94813 8.59897C10.1215 8.52897 10.3248 8.49397 10.5581 8.49397C10.7915 8.49397 10.9931 8.52897 11.1631 8.59897C11.3331 8.66563 11.4748 8.75897 11.5881 8.87897C11.7015 8.99897 11.7865 9.13897 11.8431 9.29897C11.9031 9.45897 11.9381 9.63063 11.9481 9.81397C11.9515 9.9073 11.9531 10.0106 11.9531 10.124C11.9565 10.2373 11.9565 10.3506 11.9531 10.464C11.9531 10.574 11.9515 10.674 11.9481 10.764C11.9381 10.9473 11.9048 11.1206 11.8481 11.284C11.7915 11.444 11.7065 11.5856 11.5931 11.709C11.4831 11.829 11.3415 11.924 11.1681 11.994C10.9981 12.0606 10.7948 12.094 10.5581 12.094ZM10.5581 11.444C10.7515 11.444 10.8931 11.3806 10.9831 11.254C11.0731 11.1273 11.1215 10.9556 11.1281 10.739C11.1315 10.6423 11.1331 10.5423 11.1331 10.439C11.1365 10.3356 11.1365 10.2323 11.1331 10.129C11.1331 10.0256 11.1315 9.92897 11.1281 9.83897C11.1215 9.6323 11.0731 9.46397 10.9831 9.33397C10.8931 9.20397 10.7515 9.1373 10.5581 9.13397C10.3615 9.1373 10.2181 9.20397 10.1281 9.33397C10.0415 9.46397 9.9948 9.6323 9.98813 9.83897C9.9848 9.92897 9.98146 10.0256 9.97813 10.129C9.97813 10.2323 9.97813 10.3356 9.97813 10.439C9.98146 10.5423 9.9848 10.6423 9.98813 10.739C9.9948 10.9556 10.0431 11.1273 10.1331 11.254C10.2231 11.3806 10.3648 11.444 10.5581 11.444Z" fill="white"/>
</svg>
