<svg width="19" height="19" viewBox="0 0 19 19" fill="none" xmlns="http://www.w3.org/2000/svg">
<path d="M4.66392 5.76434C5.85826 4.56228 7.47023 3.87118 9.16173 3.836L9.16149 2.48783C9.16185 2.36115 9.19953 2.23742 9.26977 2.13219C9.34002 2.02696 9.4397 1.94492 9.55629 1.89639C9.67288 1.84785 9.80118 1.83499 9.92506 1.85942C10.0489 1.88384 10.1629 1.94447 10.2525 2.03367L12.773 4.56288C12.8335 4.62157 12.8818 4.69164 12.9153 4.76908C12.9488 4.84651 12.9667 4.9298 12.9681 5.01419C12.9695 5.09857 12.9543 5.1824 12.9234 5.26088C12.8925 5.33937 12.8465 5.41097 12.788 5.4716L10.2685 7.9999C10.1788 8.08906 10.0649 8.14965 9.94104 8.17403C9.81717 8.19841 9.68887 8.1855 9.57226 8.13692C9.45565 8.08835 9.35594 8.00628 9.28566 7.90102C9.21537 7.79576 9.17766 7.67202 9.17724 7.54534L9.18067 5.96999C8.06212 6.00086 6.99762 6.45888 6.2044 7.25059C5.68397 7.75806 5.29467 8.38519 5.07017 9.07771C4.84568 9.77023 4.79277 10.5073 4.91601 11.2251C5.03925 11.9428 5.33493 12.6197 5.77747 13.1972C6.22001 13.7746 6.79607 14.2352 7.4558 14.539C8.11553 14.8429 8.83905 14.9808 9.56374 14.941C10.2884 14.9011 10.9925 14.6847 11.6149 14.3103C12.2374 13.936 12.7595 13.415 13.1361 12.7925C13.5126 12.1701 13.7324 11.4648 13.7762 10.7378C13.7779 10.6564 13.8109 10.5788 13.8683 10.5212C13.9257 10.4637 14.003 10.4305 14.0842 10.4288L15.5687 10.4291C15.6118 10.4282 15.6547 10.4361 15.6947 10.4522C15.7347 10.4684 15.7711 10.4925 15.8016 10.5231C15.8321 10.5538 15.8562 10.5902 15.8723 10.6304C15.8884 10.6706 15.8962 10.7136 15.8954 10.7569C15.8454 11.83 15.5356 12.8747 14.9926 13.8004C14.4496 14.7261 13.69 15.505 12.7793 16.0696C11.8687 16.6342 10.8345 16.9675 9.76643 17.0407C8.69833 17.1139 7.62846 16.9247 6.64945 16.4895C5.67045 16.0543 4.81182 15.3863 4.14791 14.5432C3.484 13.7001 3.03482 12.7075 2.83926 11.6511C2.64371 10.5948 2.70767 9.50666 3.02561 8.48091C3.34354 7.45516 3.90588 6.52272 4.66392 5.76434Z" fill="white"/>
<path d="M7.58376 12.1889C7.3371 12.1889 7.12543 12.1589 6.94876 12.0989C6.7721 12.0389 6.6271 11.9622 6.51376 11.8689C6.40043 11.7756 6.31543 11.6739 6.25876 11.5639C6.2021 11.4506 6.1721 11.3422 6.16876 11.2389C6.16876 11.2089 6.17876 11.1839 6.19876 11.1639C6.21876 11.1439 6.24376 11.1339 6.27376 11.1339H6.82376C6.86043 11.1339 6.89043 11.1422 6.91376 11.1589C6.9371 11.1722 6.95876 11.1972 6.97876 11.2339C7.00543 11.3106 7.04876 11.3722 7.10876 11.4189C7.16876 11.4656 7.23876 11.4989 7.31876 11.5189C7.4021 11.5356 7.49043 11.5439 7.58376 11.5439C7.77043 11.5439 7.9171 11.5006 8.02376 11.4139C8.13043 11.3272 8.18376 11.2056 8.18376 11.0489C8.18376 10.8889 8.13376 10.7739 8.03376 10.7039C7.93376 10.6339 7.7921 10.5989 7.60876 10.5989H7.07376C7.04043 10.5989 7.0121 10.5872 6.98876 10.5639C6.96543 10.5406 6.95376 10.5122 6.95376 10.4789V10.2339C6.95376 10.1939 6.96043 10.1606 6.97376 10.1339C6.99043 10.1072 7.0071 10.0872 7.02376 10.0739L7.88376 9.28389H6.47376C6.4371 9.28389 6.4071 9.27222 6.38376 9.24889C6.36043 9.22556 6.34876 9.19722 6.34876 9.16389V8.76389C6.34876 8.72722 6.36043 8.69722 6.38376 8.67389C6.4071 8.65056 6.4371 8.63889 6.47376 8.63889H8.69376C8.73043 8.63889 8.76043 8.65056 8.78376 8.67389C8.8071 8.69722 8.81876 8.72722 8.81876 8.76389V9.12389C8.81876 9.16056 8.8121 9.19222 8.79876 9.21889C8.78543 9.24222 8.76876 9.26056 8.74876 9.27389L7.93376 10.0789L7.98376 10.0839C8.18043 10.1039 8.35543 10.1522 8.50876 10.2289C8.6621 10.3056 8.7821 10.4156 8.86876 10.5589C8.95876 10.6989 9.00376 10.8772 9.00376 11.0939C9.00376 11.3206 8.9421 11.5156 8.81876 11.6789C8.69543 11.8422 8.5271 11.9689 8.31376 12.0589C8.10043 12.1456 7.8571 12.1889 7.58376 12.1889ZM10.7815 12.1889C10.5415 12.1889 10.3349 12.1556 10.1615 12.0889C9.99154 12.0189 9.84987 11.9239 9.73654 11.8039C9.62654 11.6806 9.5432 11.5389 9.48654 11.3789C9.4332 11.2156 9.40154 11.0422 9.39154 10.8589C9.3882 10.7689 9.38487 10.6689 9.38154 10.5589C9.38154 10.4456 9.38154 10.3322 9.38154 10.2189C9.38487 10.1056 9.3882 10.0022 9.39154 9.90889C9.3982 9.72556 9.42987 9.55389 9.48654 9.39389C9.54654 9.23389 9.6332 9.09389 9.74654 8.97389C9.85987 8.85389 10.0015 8.76056 10.1715 8.69389C10.3449 8.62389 10.5482 8.58889 10.7815 8.58889C11.0149 8.58889 11.2165 8.62389 11.3865 8.69389C11.5565 8.76056 11.6982 8.85389 11.8115 8.97389C11.9249 9.09389 12.0099 9.23389 12.0665 9.39389C12.1265 9.55389 12.1615 9.72556 12.1715 9.90889C12.1749 10.0022 12.1765 10.1056 12.1765 10.2189C12.1799 10.3322 12.1799 10.4456 12.1765 10.5589C12.1765 10.6689 12.1749 10.7689 12.1715 10.8589C12.1615 11.0422 12.1282 11.2156 12.0715 11.3789C12.0149 11.5389 11.9299 11.6806 11.8165 11.8039C11.7065 11.9239 11.5649 12.0189 11.3915 12.0889C11.2215 12.1556 11.0182 12.1889 10.7815 12.1889ZM10.7815 11.5389C10.9749 11.5389 11.1165 11.4756 11.2065 11.3489C11.2965 11.2222 11.3449 11.0506 11.3515 10.8339C11.3549 10.7372 11.3565 10.6372 11.3565 10.5339C11.3599 10.4306 11.3599 10.3272 11.3565 10.2239C11.3565 10.1206 11.3549 10.0239 11.3515 9.93389C11.3449 9.72722 11.2965 9.55889 11.2065 9.42889C11.1165 9.29889 10.9749 9.23222 10.7815 9.22889C10.5849 9.23222 10.4415 9.29889 10.3515 9.42889C10.2649 9.55889 10.2182 9.72722 10.2115 9.93389C10.2082 10.0239 10.2049 10.1206 10.2015 10.2239C10.2015 10.3272 10.2015 10.4306 10.2015 10.5339C10.2049 10.6372 10.2082 10.7372 10.2115 10.8339C10.2182 11.0506 10.2665 11.2222 10.3565 11.3489C10.4465 11.4756 10.5882 11.5389 10.7815 11.5389Z" fill="white"/>
</svg>
