<svg width="15" height="15" viewBox="0 0 15 15" fill="none" xmlns="http://www.w3.org/2000/svg">
<path fill-rule="evenodd" clip-rule="evenodd" d="M7.5 13.35C10.7308 13.35 13.35 10.7308 13.35 7.5C13.35 4.26917 10.7308 1.65 7.5 1.65C4.26917 1.65 1.65 4.26917 1.65 7.5C1.65 10.7308 4.26917 13.35 7.5 13.35ZM7.5 14C11.0899 14 14 11.0899 14 7.5C14 3.91005 11.0899 1 7.5 1C3.91005 1 1 3.91005 1 7.5C1 11.0899 3.91005 14 7.5 14Z" fill="white"/>
<path d="M3.59999 11.2797C3.59999 10.944 3.85089 10.6603 4.18499 10.6232C6.69237 10.3457 8.31899 10.3707 10.8208 10.6294C10.9458 10.6425 11.0642 10.6917 11.1616 10.771C11.259 10.8504 11.3312 10.9563 11.3694 11.076C11.4076 11.1957 11.4101 11.3239 11.3767 11.4449C11.3432 11.566 11.2752 11.6747 11.1809 11.7578C8.22832 14.3315 6.54092 14.296 3.80799 11.7604C3.67474 11.6369 3.59999 11.4614 3.59999 11.28V11.2797Z" fill="white"/>
<path fill-rule="evenodd" clip-rule="evenodd" d="M10.7874 10.9524C8.30533 10.6957 6.70211 10.6716 4.22041 10.9463C4.13871 10.9558 4.06341 10.9951 4.0089 11.0567C3.95439 11.1183 3.92451 11.1978 3.92498 11.28C3.92498 11.373 3.96366 11.4611 4.02898 11.5222C5.38358 12.7786 6.40993 13.3464 7.41321 13.35C8.42006 13.3535 9.50166 12.7903 10.9674 11.5131C11.014 11.4716 11.0475 11.4175 11.0639 11.3574C11.0803 11.2973 11.0789 11.2336 11.0598 11.1743C11.0407 11.1149 11.0048 11.0624 10.9565 11.0231C10.9081 10.9838 10.8493 10.9593 10.7874 10.9528V10.9524ZM4.14923 10.3002C6.68293 10.0197 8.33328 10.045 10.8546 10.306C11.0426 10.3256 11.2207 10.3996 11.3673 10.5189C11.5138 10.6382 11.6224 10.7977 11.6797 10.9778C11.737 11.1578 11.7406 11.3507 11.69 11.5328C11.6394 11.7148 11.5368 11.8782 11.3948 12.0028C9.90791 13.2989 8.66966 14.0048 7.41126 14C6.14928 13.9954 4.96563 13.2775 3.58731 11.9986C3.48862 11.9067 3.40995 11.7954 3.35621 11.6717C3.30247 11.548 3.27482 11.4146 3.27498 11.2797C3.27451 11.0374 3.36345 10.8034 3.52476 10.6226C3.68608 10.4418 3.90843 10.3269 4.14923 10.2998V10.3002Z" fill="white"/>
<path d="M10.1 6.19998C10.1 6.88954 9.82607 7.55086 9.33847 8.03845C8.85088 8.52605 8.18956 8.79997 7.49999 8.79997C6.81043 8.79997 6.14911 8.52605 5.66152 8.03845C5.17392 7.55086 4.89999 6.88954 4.89999 6.19998C4.89999 5.51041 5.17392 4.84909 5.66152 4.3615C6.14911 3.8739 6.81043 3.59998 7.49999 3.59998C8.18956 3.59998 8.85088 3.8739 9.33847 4.3615C9.82607 4.84909 10.1 5.51041 10.1 6.19998Z" fill="white"/>
<path fill-rule="evenodd" clip-rule="evenodd" d="M7.49999 8.14997C8.01717 8.14997 8.51316 7.94453 8.87885 7.57883C9.24455 7.21314 9.44999 6.71715 9.44999 6.19998C9.44999 5.6828 9.24455 5.18681 8.87885 4.82112C8.51316 4.45542 8.01717 4.24998 7.49999 4.24998C6.98282 4.24998 6.48683 4.45542 6.12114 4.82112C5.75544 5.18681 5.54999 5.6828 5.54999 6.19998C5.54999 6.71715 5.75544 7.21314 6.12114 7.57883C6.48683 7.94453 6.98282 8.14997 7.49999 8.14997ZM7.49999 8.79997C8.18956 8.79997 8.85088 8.52605 9.33847 8.03845C9.82607 7.55086 10.1 6.88954 10.1 6.19998C10.1 5.51041 9.82607 4.84909 9.33847 4.3615C8.85088 3.8739 8.18956 3.59998 7.49999 3.59998C6.81043 3.59998 6.14911 3.8739 5.66152 4.3615C5.17392 4.84909 4.89999 5.51041 4.89999 6.19998C4.89999 6.88954 5.17392 7.55086 5.66152 8.03845C6.14911 8.52605 6.81043 8.79997 7.49999 8.79997Z" fill="white"/>
</svg>
